{
  "accessors": [
    {
      "bufferView": 2,
      "componentType": 5126,
      "count": 8715,
      "max": [
        0.08821900188922882,
        0.7602900266647339,
        1.25
      ],
      "min": [
        -0.37386101484298706,
        -0.8420199751853943,
        -0.6052939891815186
      ],
      "type": "VEC3"
    },
    {
      "bufferView": 2,
      "byteOffset": 104580,
      "componentType": 5126,
      "count": 8715,
      "max": [
        1.0,
        1.0,
        1.0
      ],
      "min": [
        -1.0,
        -0.9999997615814209,
        -1.0
      ],
      "type": "VEC3"
    },
    {
      "bufferView": 1,
      "componentType": 5126,
      "count": 8715,
      "max": [
        0.9335730075836182,
        0.8922889828681946
      ],
      "min": [
        0.5894560217857361,
        0.6983000040054321
      ],
      "type": "VEC2"
    },
    {
      "bufferView": 0,
      "componentType": 5125,
      "count": 42372,
      "type": "SCALAR"
    },
    {
      "bufferView": 2,
      "byteOffset": 209160,
      "componentType": 5126,
      "count": 15337,
      "max": [
        0.37386101484298706,
        1.0041660070419312,
        0.114935003221035
      ],
      "min": [
        -0.3356989920139313,
        -1.0041660070419312,
        -1.25
      ],
      "type": "VEC3"
    },
    {
      "bufferView": 2,
      "byteOffset": 393204,
      "componentType": 5126,
      "count": 15337,
      "max": [
        1.0,
        1.0,
        1.0
      ],
      "min": [
        -1.0,
        -1.0,
        -1.0
      ],
      "type": "VEC3"
    },
    {
      "bufferView": 1,
      "byteOffset": 69720,
      "componentType": 5126,
      "count": 15337,
      "max": [
        0.9663100242614746,
        0.8762710094451904
      ],
      "min": [
        0.5365480184555054,
        0.5507990121841431
      ],
      "type": "VEC2"
    },
    {
      "bufferView": 0,
      "byteOffset": 169488,
      "componentType": 5125,
      "count": 80544,
      "type": "SCALAR"
    }
  ],
  "asset": {
    "extras": {
      "author": "Slovakia (https://sketchfab.com/Slovakia)",
      "license": "CC-BY-4.0 (http://creativecommons.org/licenses/by/4.0/)",
      "source": "https://sketchfab.com/3d-models/ps-controller-2ecb65cc2b0c4f1cabc758ed9952bf66",
      "title": "PS Controller"
    },
    "generator": "Sketchfab-12.30.0",
    "version": "2.0"
  },
  "bufferViews": [
    {
      "buffer": 0,
      "byteLength": 491664,
      "name": "floatBufferViews",
      "target": 34963
    },
    {
      "buffer": 0,
      "byteLength": 192416,
      "byteOffset": 491664,
      "byteStride": 8,
      "name": "floatBufferViews",
      "target": 34962
    },
    {
      "buffer": 0,
      "byteLength": 577248,
      "byteOffset": 684080,
      "byteStride": 12,
      "name": "floatBufferViews",
      "target": 34962
    }
  ],
  "buffers": [
    {
      "byteLength": 1261328,
      "uri": "scene.bin"
    }
  ],
  "images": [
    {
      "uri": "textures/TexMap_baseColor.jpeg"
    }
  ],
  "materials": [
    {
      "doubleSided": true,
      "name": "TexMap",
      "pbrMetallicRoughness": {
        "baseColorTexture": {
          "index": 0
        },
        "metallicFactor": 0.0
      }
    }
  ],
  "meshes": [
    {
      "name": "Object_0",
      "primitives": [
        {
          "attributes": {
            "NORMAL": 1,
            "POSITION": 0,
            "TEXCOORD_0": 2
          },
          "indices": 3,
          "material": 0,
          "mode": 4
        }
      ]
    },
    {
      "name": "Object_1",
      "primitives": [
        {
          "attributes": {
            "NORMAL": 5,
            "POSITION": 4,
            "TEXCOORD_0": 6
          },
          "indices": 7,
          "material": 0,
          "mode": 4
        }
      ]
    }
  ],
  "nodes": [
    {
      "children": [
        1
      ],
      "matrix": [
        2.220446049250313e-16,
        2.220446049250313e-16,
        -1.0,
        0.0,
        -1.0,
        4.930380657631324e-32,
        -2.220446049250313e-16,
        0.0,
        0.0,
        1.0,
        2.220446049250313e-16,
        0.0,
        -3.337860107421875e-06,
        -6.352747104407253e-22,
        2.86102294921875e-06,
        1.0
      ],
      "name": "Sketchfab_model"
    },
    {
      "children": [
        2,
        3
      ],
      "name": "model.obj.cleaner.materialmerger.gles"
    },
    {
      "mesh": 0,
      "name": "Object_2"
    },
    {
      "mesh": 1,
      "name": "Object_3"
    }
  ],
  "samplers": [
    {
      "magFilter": 9729,
      "minFilter": 9987,
      "wrapS": 10497,
      "wrapT": 10497
    }
  ],
  "scene": 0,
  "scenes": [
    {
      "name": "Sketchfab_Scene",
      "nodes": [
        0
      ]
    }
  ],
  "textures": [
    {
      "sampler": 0,
      "source": 0
    }
  ]
}
